<svg height="512pt" viewBox="-21 0 512 512" width="512pt" xmlns="http://www.w3.org/2000/svg"><path d="m202.667969 501.332031c0-39.65625 25.707031-74.300781 63.144531-86.058593-6.933594-7.65625-11.457031-17.34375-12.820312-28.03125l-2.304688-18.601563c-1.558594-12.011719 1.257812-24.234375 7.765625-34.410156-.085937-1.707031-.148437-3.242188-.148437-4.480469 0-43.414062 26.070312-70.230469 71.828124-74.496094 19.96875-9.898437 38.65625-9.898437 46.25-9.898437 2.710938 0 5.078126.320312 7.597657.511719v-171.199219c.019531-17.644531-14.335938-32-31.980469-32h-320c-17.644531 0-32 14.355469-32 32v405.332031c0 17.644531 14.355469 32 32 32h172.179688c-.894532-3.457031-1.511719-6.996094-1.511719-10.667969zm0 0" fill="#eceff1"/><path d="m266.667969 21.332031h-37.847657c-7.550781-12.992187-21.523437-21.332031-36.820312-21.332031s-29.269531 8.339844-36.820312 21.332031h-37.847657c-17.640625 0-32 14.359375-32 32v21.335938c0 5.886719 4.78125 10.664062 10.667969 10.664062h192c5.886719 0 10.667969-4.777343 10.667969-10.664062v-21.335938c0-17.640625-14.359375-32-32-32zm0 0" fill="#455a64"/><path d="m425.28125 444.886719-32.023438-7.980469-1.320312-5.375c8.320312-9.175781 14.207031-20.886719 16.660156-33.046875 5.695313-2.941406 9.835938-8.53125 10.667969-15.273437l2.300781-18.519532c.707032-5.628906-1.023437-11.304687-4.753906-15.570312-1.152344-1.324219-2.457031-2.453125-3.90625-3.414063l.554688-11.328125 1.941406-1.964844c5.503906-5.820312 12.929687-18.324218 1.171875-36.308593-5.566407-8.554688-17.066407-18.773438-40.167969-18.773438-6.785156 0-22.125 0-37.015625 9.34375-43.902344 1.515625-49.066406 25.195313-49.066406 43.050781 0 3.519532.621093 10.136719 1.238281 15.640626-1.578125 1-3.050781 2.21875-4.289062 3.667968-3.796876 4.289063-5.546876 10.003906-4.820313 15.617188l2.304687 18.558594c.875 6.933593 5.289063 12.714843 11.796876 15.550781 2.390624 11.648437 7.957031 22.890625 15.765624 31.851562l-1.558593 6.273438-32.019531 7.976562c-25.941407 6.507813-44.074219 29.71875-44.074219 56.46875 0 2.839844 1.128906 5.546875 3.113281 7.554688 1.984375 2.003906 4.714844 3.113281 7.550781 3.113281l213.335938-.019531c5.886719 0 10.664062-4.78125 10.664062-10.667969 0-26.730469-18.132812-49.941406-44.050781-56.425781zm0 0" fill="#00bcd4"/><path d="m245.332031 512c-2.835937 0-5.546875-1.128906-7.550781-3.113281s-3.113281-4.714844-3.113281-7.554688c0-26.75 18.132812-49.960937 44.050781-56.445312l32.023438-7.980469 1.554687-6.273438c-7.804687-8.957031-13.375-20.199218-15.761719-31.847656-6.507812-2.839844-10.925781-8.597656-11.800781-15.554687l-2.300781-18.558594c-.726563-5.632813 1.023437-11.328125 4.820312-15.617187 1.257813-1.429688 2.707032-2.664063 4.289063-3.667969-.597657-5.523438-1.238281-12.117188-1.238281-15.636719 0-17.855469 5.160156-41.515625 49.066406-43.050781 14.890625-9.367188 30.230468-9.367188 37.035156-9.367188 23.101562 0 34.601562 10.21875 40.191406 18.753907 11.777344 17.984374 4.332032 30.484374-1.171875 36.308593l-1.941406 1.960938-.554687 11.328125c1.425781.960937 2.75 2.113281 3.902343 3.414062 3.734375 4.269532 5.460938 9.964844 4.757813 15.574219l-2.304688 18.515625c-.832031 6.722656-4.96875 12.332031-10.667968 15.277344-2.453126 12.160156-8.359376 23.871094-16.660157 33.042968l1.324219 5.378907 32.019531 7.976562c25.898438 6.507813 44.03125 29.71875 44.03125 56.449219 0 5.886719-4.777343 10.667969-10.664062 10.667969zm12.226563-21.355469 188.882812.023438c-3.667968-12.183594-13.480468-21.867188-26.324218-25.089844l-38.25-9.535156c-3.839844-.960938-6.804688-3.945313-7.765626-7.765625l-4.351562-17.429688c-.960938-3.839844.296875-7.894531 3.21875-10.515625 8.578125-7.679687 14.488281-19.628906 15.425781-31.148437.449219-5.546875 5.054688-9.8125 10.625-9.8125l1.363281-17.324219c-2.898437-.042969-4.949218-.445313-6.953124-2.558594-1.984376-2.113281-2.324219-4.140625-2.199219-7.039062l1.132812-23.234375c.128907-2.644532 1.238281-5.140625 3.113281-7.015625l4.628907-4.632813c1.195312-1.277344 2.964843-3.15625-1.363281-9.8125-1.496094-2.261718-5.953126-9.085937-22.335938-9.085937-5.613281 0-17.300781 0-27.457031 7.273437-1.792969 1.300782-3.925781 1.984375-6.101563 2.003906-31.1875.320313-31.1875 10.753907-31.1875 21.78125 0 3.757813 1.300782 15.425782 2.109375 21.867188.386719 3.050781-.554687 6.082031-2.582031 8.40625-2.023438 2.28125-4.925781 3.605469-8 3.605469l2.753906 16.980469c5.566406 0 10.304688 3.050781 10.75 8.597656.917969 11.308594 6.402344 22.71875 14.699219 30.550781 2.839844 2.644531 4.011719 6.613281 3.074219 10.34375l-4.542969 18.199219c-.960937 3.839844-3.949219 6.804687-7.765625 7.765625l-38.230469 9.535156c-12.863281 3.222656-22.699219 12.90625-26.367187 25.066406zm0 0"/><path d="m373.332031 256c-5.886719 0-10.664062-4.777344-10.664062-10.667969v-170.664062c0-5.867188-4.800781-10.667969-10.667969-10.667969h-64c-5.886719 0-10.667969-4.777344-10.667969-10.667969 0-5.886719 4.78125-10.664062 10.667969-10.664062h64c17.644531 0 32 14.355469 32 32v170.664062c0 5.890625-4.777344 10.667969-10.667969 10.667969zm0 0"/><path d="m202.667969 512h-170.667969c-17.644531 0-32-14.355469-32-32v-405.332031c0-17.644531 14.355469-32 32-32h64c5.886719 0 10.667969 4.777343 10.667969 10.664062 0 5.890625-4.78125 10.667969-10.667969 10.667969h-64c-5.867188 0-10.667969 4.800781-10.667969 10.667969v405.332031c0 5.867188 4.800781 10.667969 10.667969 10.667969h170.667969c5.886719 0 10.664062 4.777343 10.664062 10.664062 0 5.890625-4.777343 10.667969-10.664062 10.667969zm0 0"/><path d="m288 85.332031h-192c-5.886719 0-10.667969-4.777343-10.667969-10.664062v-21.335938c0-17.640625 14.359375-32 32-32h37.847657c7.550781-12.992187 21.523437-21.332031 36.820312-21.332031s29.269531 8.339844 36.820312 21.332031h37.847657c17.640625 0 32 14.359375 32 32v21.335938c0 5.886719-4.78125 10.664062-10.667969 10.664062zm-181.332031-21.332031h170.664062v-10.667969c0-5.867187-4.796875-10.664062-10.664062-10.664062h-44.628907c-4.523437 0-8.535156-2.839844-10.050781-7.082031-3.027343-8.515626-11.070312-14.253907-19.988281-14.253907s-16.960938 5.738281-20.011719 14.253907c-1.492187 4.242187-5.503906 7.082031-10.027343 7.082031h-44.628907c-5.867187 0-10.664062 4.796875-10.664062 10.664062zm0 0"/></svg>